<?xml version="1.0" encoding="utf-8"?>
<!-- Generator: Adobe Illustrator 16.0.0, SVG Export Plug-In . SVG Version: 6.00 Build 0)  -->
<!DOCTYPE svg PUBLIC "-//W3C//DTD SVG 1.1//EN" "http://www.w3.org/Graphics/SVG/1.1/DTD/svg11.dtd">
<svg version="1.1" id="Layer_1" xmlns="http://www.w3.org/2000/svg" xmlns:xlink="http://www.w3.org/1999/xlink" x="0px" y="0px"
	 width="470px" height="130px" viewBox="0 0 470 130" enable-background="new 0 0 470 130" xml:space="preserve">
<g>
	<path fill="#FFFFFF" d="M206.583,18.693h2.948l10.182,19.846h-2.702l-2.566-5.159h-12.803l-2.593,5.159h-2.675L206.583,18.693z
		 M213.381,31.25l-5.323-10.673l-5.323,10.673H213.381z"/>
	<path fill="#FFFFFF" d="M226.924,20.822h-9.582v-2.129h21.565v2.129h-9.582v17.716h-2.402V20.822z"/>
	<path fill="#FFFFFF" d="M242.079,18.693h2.402v17.716h15.669v2.129h-18.071V18.693z"/>
	<path fill="#FFFFFF" d="M271.401,18.693h2.948l10.183,19.846h-2.703l-2.565-5.159H266.46l-2.593,5.159h-2.675L271.401,18.693z
		 M278.199,31.25l-5.324-10.673l-5.323,10.673H278.199z"/>
	<path fill="#FFFFFF" d="M287.595,18.693h3.412l14.768,16.324V18.693h2.402v19.846h-2.402l-15.887-17.716v17.716h-2.293V18.693z"/>
	<path fill="#FFFFFF" d="M320.931,20.822h-9.582v-2.129h21.565v2.129h-9.582v17.716h-2.401V20.822z"/>
	<path fill="#FFFFFF" d="M340.752,18.693h2.948l10.182,19.846h-2.702l-2.566-5.159h-12.803l-2.593,5.159h-2.676L340.752,18.693z
		 M347.549,31.25l-5.323-10.673l-5.323,10.673H347.549z"/>
	<path fill="#FFFFFF" d="M198.503,51.458h11.629c4.013,0,7.671,1.146,7.671,5.678c0,4.559-3.658,5.705-7.671,5.705h-9.227v8.462
		h-2.402V51.458z M200.906,60.711h8.599c3.986,0,6.006-0.846,6.006-3.548c0-2.73-2.02-3.576-6.006-3.576h-8.599V60.711z"/>
	<path fill="#FFFFFF" d="M221.22,51.458h11.465c3.167,0,7.807,0.683,7.807,5.542c0,4.149-3.849,5.351-6.251,5.459l6.552,8.845
		h-2.976l-6.388-8.79h-7.807v8.79h-2.402V51.458z M223.622,60.384h8.517c3.467,0,6.06-0.491,6.06-3.412
		c0-2.894-2.593-3.385-6.06-3.385h-8.517V60.384z"/>
	<path fill="#FFFFFF" d="M255.784,50.966c6.743,0,11.629,3.931,11.629,10.537c0,7.042-5.896,10.291-11.629,10.291
		c-5.733,0-11.629-3.249-11.629-10.291C244.155,54.897,249.041,50.966,255.784,50.966z M255.784,69.666
		c4.832,0,9.172-2.566,9.172-8.599c0-4.422-3.412-8.08-9.172-8.08s-9.172,3.658-9.172,8.08
		C246.611,67.099,250.897,69.666,255.784,69.666z"/>
	<path fill="#FFFFFF" d="M271.266,51.458h11.629c4.013,0,7.67,1.146,7.67,5.678c0,4.559-3.657,5.705-7.67,5.705h-9.227v8.462h-2.402
		V51.458z M273.668,60.711h8.599c3.985,0,6.005-0.846,6.005-3.548c0-2.73-2.02-3.576-6.005-3.576h-8.599V60.711z"/>
	<path fill="#FFFFFF" d="M293.982,51.458h17.688v2.129h-15.287v6.333h12.775v2.129h-12.775v7.125h15.615v2.129h-18.017V51.458z"/>
	<path fill="#FFFFFF" d="M315.225,51.458h11.465c3.166,0,7.807,0.683,7.807,5.542c0,4.149-3.849,5.351-6.251,5.459l6.552,8.845
		h-2.976l-6.388-8.79h-7.808v8.79h-2.401V51.458z M317.626,60.384h8.518c3.467,0,6.06-0.491,6.06-3.412
		c0-2.894-2.593-3.385-6.06-3.385h-8.518V60.384z"/>
	<path fill="#FFFFFF" d="M346.049,53.587h-9.582v-2.129h21.565v2.129h-9.582v17.716h-2.401V53.587z"/>
	<path fill="#FFFFFF" d="M369.528,63.278l-10.236-11.82h3.139l8.299,9.691l8.299-9.691h3.14l-10.237,11.82v8.025h-2.402V63.278z"/>
	<path fill="#FFFFFF" d="M401.364,53.587h-9.582v-2.129h21.565v2.129h-9.582v17.716h-2.401V53.587z"/>
	<path fill="#FFFFFF" d="M421.187,51.458h2.948l10.182,19.846h-2.702l-2.566-5.159h-12.803l-2.593,5.159h-2.676L421.187,51.458z
		 M427.983,64.015l-5.323-10.673l-5.323,10.673H427.983z"/>
	<path fill="#FFFFFF" d="M444.612,61.012l-8.845-9.554h3.194l7.233,7.889l7.316-7.889h3.193l-8.898,9.527l9.526,10.319h-3.166
		l-7.917-8.626l-8.053,8.626h-3.248L444.612,61.012z"/>
	<path fill="#FFFFFF" d="M198.694,98.39c1.146,1.528,3.058,4.04,9.009,4.04c3.057,0,7.234-0.874,7.234-3.958
		c0-6.033-17.307-0.737-17.307-8.79c0-4.231,3.904-5.951,9.309-5.951c5.241,0,8.462,2.156,9.827,4.067l-1.747,1.419
		c-0.819-0.928-2.729-3.467-8.135-3.467c-3.985,0-6.797,1.037-6.797,3.549c0,6.005,17.307,0.273,17.307,9.172
		c0,3.331-3.221,6.087-9.964,6.087c-6.497,0-8.899-2.702-10.591-4.586L198.694,98.39z"/>
	<path fill="#FFFFFF" d="M231.511,83.73c6.743,0,11.629,3.931,11.629,10.537c0,7.042-5.896,10.291-11.629,10.291
		c-5.733,0-11.629-3.249-11.629-10.291C219.882,87.661,224.769,83.73,231.511,83.73z M231.511,102.43
		c4.832,0,9.172-2.566,9.172-8.599c0-4.422-3.412-8.08-9.172-8.08s-9.172,3.658-9.172,8.08
		C222.339,99.863,226.625,102.43,231.511,102.43z"/>
	<path fill="#FFFFFF" d="M246.994,84.222h2.402v17.716h15.669v2.129h-18.071V84.222z"/>
	<path fill="#FFFFFF" d="M288.736,95.905c0,7.179-5.596,8.653-10.209,8.653s-10.209-1.474-10.209-8.653V84.222h2.402v11.684
		c0,4.559,2.921,6.633,7.807,6.633c4.886,0,7.807-2.075,7.807-6.633V84.222h2.402V95.905z"/>
	<path fill="#FFFFFF" d="M301.572,86.351h-9.582v-2.129h21.565v2.129h-9.582v17.716h-2.401V86.351z"/>
	<path fill="#FFFFFF" d="M316.727,84.222h2.401v19.846h-2.401V84.222z"/>
	<path fill="#FFFFFF" d="M334.608,83.73c6.742,0,11.629,3.931,11.629,10.537c0,7.042-5.896,10.291-11.629,10.291
		s-11.629-3.249-11.629-10.291C322.979,87.661,327.865,83.73,334.608,83.73z M334.608,102.43c4.832,0,9.172-2.566,9.172-8.599
		c0-4.422-3.412-8.08-9.172-8.08s-9.172,3.658-9.172,8.08C325.437,99.863,329.722,102.43,334.608,102.43z"/>
	<path fill="#FFFFFF" d="M350.092,84.222h3.412l14.768,16.324V84.222h2.402v19.846h-2.402l-15.887-17.716v17.716h-2.293V84.222z"/>
	<path fill="#FFFFFF" d="M376.057,98.39c1.146,1.528,3.058,4.04,9.009,4.04c3.058,0,7.233-0.874,7.233-3.958
		c0-6.033-17.307-0.737-17.307-8.79c0-4.231,3.903-5.951,9.309-5.951c5.241,0,8.463,2.156,9.827,4.067l-1.747,1.419
		c-0.818-0.928-2.729-3.467-8.135-3.467c-3.985,0-6.797,1.037-6.797,3.549c0,6.005,17.307,0.273,17.307,9.172
		c0,3.331-3.221,6.087-9.964,6.087c-6.497,0-8.899-2.702-10.592-4.586L376.057,98.39z"/>
</g>
<polyline fill="#FFFFFF" points="54,40 40.217,40 9.033,70 27,70 27,112 85,112 85,52 93.476,52 117.884,22.624 150,52.817 150,112 
	157,112 157,52.817 175.344,53.492 128.37,11 83,11 "/>
<rect x="130" y="82" fill="#FFFFFF" width="12" height="26"/>
<rect x="112" y="83" fill="#FFFFFF" width="12" height="11"/>
<rect x="98" y="83" fill="#FFFFFF" width="11" height="11"/>
<rect x="112" y="58" fill="#FFFFFF" width="12" height="13"/>
<rect x="130" y="58" fill="#FFFFFF" width="8" height="13"/>
<rect x="98" y="58" fill="#FFFFFF" width="11" height="13"/>
</svg>
